<?xml version="1.0" encoding="UTF-8"?>
<svg id="Layer_1" data-name="Layer 1" xmlns="http://www.w3.org/2000/svg" viewBox="0 0 513 512">
  <defs>
    <style>
      .cls-1 {
        fill: #6eb204;
      }

      .cls-1, .cls-2 {
        stroke-width: 0px;
      }

      .cls-2 {
        fill: #8cc63f;
      }
    </style>
  </defs>
  <g>
    <path class="cls-1" d="m81.06,347.12v5.59h6.75v6.21h-6.75v11.3h-6.6v-29.32h15.01v6.21s-8.41,0-8.41,0Z"/>
    <path class="cls-1" d="m90.47,359.39c0-6.44,5.02-11.34,11.69-11.34s11.69,4.9,11.69,11.34-5.02,11.34-11.69,11.34-11.69-4.9-11.69-11.34Zm17.01,0c0-3.05-2.28-5.32-5.32-5.32s-5.32,2.24-5.32,5.32,2.31,5.32,5.32,5.32,5.32-2.24,5.32-5.32Z"/>
    <path class="cls-1" d="m134.3,348.55v21.68h-6.21v-1.77c-1.27,1.54-2.93,2.31-5.02,2.31-3.78,0-6.37-2.62-6.37-6.71v-15.47h6.21v13.62c0,1.58.96,2.55,2.43,2.55,1.66,0,2.78-1,2.78-2.62v-13.5h6.21l-.04-.08Z"/>
    <path class="cls-1" d="m156.79,354.76v15.47h-6.21v-13.43c0-1.66-.96-2.74-2.55-2.74-1.81,0-2.97,1.12-2.97,2.82v13.35h-6.21v-21.68h6.21v1.81c1.35-1.54,3.09-2.35,5.29-2.35,3.86,0,6.44,2.66,6.44,6.71v.04Z"/>
    <path class="cls-1" d="m182.87,339.64v30.59h-6.21v-2.16c-1.66,1.7-3.9,2.66-6.56,2.66-5.98,0-10.49-4.9-10.49-11.34s4.51-11.34,10.49-11.34c2.62,0,4.9.96,6.56,2.66v-11.11h6.21v.04Zm-6.21,19.75c0-3.05-2.28-5.32-5.36-5.32s-5.29,2.24-5.29,5.32,2.24,5.32,5.29,5.32,5.36-2.24,5.36-5.32Z"/>
    <path class="cls-1" d="m203.62,355.8v14.47h-5.71v-1.31c-1.23,1.16-2.93,1.81-4.75,1.81-3.94,0-7.1-3.05-7.1-7.21s3.16-7.14,7.1-7.14c1.62,0,3.09.5,4.24,1.35v-1.35c0-1.81-1.5-3.05-3.74-3.05-2.04,0-4.51.93-6.1,2.08v-5.17c1.58-1.2,4.44-2.16,7.37-2.16,5.13,0,8.68,3.05,8.68,7.75v-.08Zm-6.21,7.72c0-1.39-1.12-2.47-2.51-2.47s-2.51,1.08-2.51,2.47,1.12,2.55,2.51,2.55,2.51-1.12,2.51-2.55Z"/>
    <path class="cls-1" d="m214.97,354.22v8.53c0,1.5.81,2.16,2.12,2.16.54,0,1.16-.12,1.66-.35v5.79c-.93.27-1.77.39-2.78.39-4.24,0-7.21-2.47-7.21-7.37v-9.18h-2.85v-5.67h2.85v-4.71h6.21v4.71h3.78v5.67h-3.78v.04Z"/>
    <path class="cls-1" d="m221.41,342.22c0-2.2,1.7-3.82,3.9-3.82s3.9,1.62,3.9,3.82-1.66,3.82-3.9,3.82-3.9-1.66-3.9-3.82Zm.81,6.33h6.21v21.68h-6.21v-21.68Z"/>
    <path class="cls-1" d="m231.63,359.39c0-6.44,5.02-11.34,11.69-11.34s11.69,4.9,11.69,11.34-5.02,11.34-11.69,11.34-11.69-4.9-11.69-11.34Zm17.01,0c0-3.05-2.28-5.32-5.32-5.32s-5.32,2.24-5.32,5.32,2.31,5.32,5.32,5.32,5.32-2.24,5.32-5.32Z"/>
    <path class="cls-1" d="m276.23,354.76v15.47h-6.21v-13.43c0-1.66-.96-2.74-2.55-2.74-1.81,0-2.97,1.12-2.97,2.82v13.35h-6.21v-21.68h6.21v1.81c1.35-1.54,3.09-2.35,5.29-2.35,3.86,0,6.44,2.66,6.44,6.71v.04Z"/>
  </g>
  <path class="cls-1" d="m406.7,324.9c-9.12,7.98-19.93,16.14-32.84,23.59-47.86,27.6-57.7-4.44-48.99-34.16,6.92-23.68,20.02-56.81,61.16-98.34,17.6-17.76,50.32-32.98,60.39-20.22,6.19,7.86,1.78,29-16.2,37.9-6.82,3.37-2.17,7.2-.26,6.42,7.8-3.19,19.84-15.04,23.4-26.13,7.25-22.5-10.7-43.26-57.3-20.09-53.86,26.78-82.22,62.16-101.09,103.09-8.41,18.22-18.69,58.24,1.16,72.29,19.83,14.05,48.19,7.42,77.75-9.36,17.32-9.83,32.13-22.74,43.73-34.99h-10.9Z"/>
  <path class="cls-1" d="m329.95,150.92c-18.55-11.61-40.76-13.52-62.67-15.91-18.47-1.42-54.86-11.31-61.68-18.24-8.57-9.15-14.53-20.2-7.66-31.37,11.93-19.37,40.68-24.97,63.3-20.43,15.87,3.18,27.01,7.84,39.7,17.56,12.41,9.5,19.45,18.6,23.84,32.34,6.04-7.51,12.08-15.01,18.12-22.52.45-.55,1.24-1.22.92-1.84-16.79-31.8-70.6-39.8-106.69-33.56-6.12,1.06-12.17,2.47-18.07,4.26-20.3,6.15-39,20.98-43.77,40.06-.44,1.76-.77,3.55-1,5.34-.86,50.16,69.17,47.36,108.95,55.29,6.7,1.34,13.23,3.4,19.37,6.37,12.24,5.92,30.44,20.77,15.88,44.23-15.05,20.48-44.22,16.76-65.67,9.34-7.5-2.59-14.72-6-21.39-10.3-6.53-4.21-12.16-9.55-18.34-14.24-12.72-9.67-26.99-17.8-42.52-21.84-8.41-2.19-17.15-2.91-25.86-2.28-30.43,2.18-60.03,19.59-69.35,46.26-10.01,28.66-1.63,62.22,23.1,82.99,1.29,1.08,2.61,2.13,3.97,3.13,4.94,3.66,10.31,6.86,16,9.52,33.69,14.44,71.05,12.96,106.62,5.88,15.05-3,31.12-4.61,47.37-5.95,4.75-11.79,11.96-22.6,19.79-32.78.35-1.04.71-2.07,1.12-3.09-19.97,5.61-39.12,10.87-54.79,13.86-29.78,5.7-57.89,16.28-88.83,13.73-29.5-2.43-58.66-16.68-67.28-43.72-8.87-27.81,6.23-65.14,39.66-72.28,5.78-1.23,11.78-1.45,17.67-.77,11.92,1.38,23.9,6.71,32.54,14.12,34.03,29.18,66.71,50.1,116.33,34.22,48.68-14.21,75.18-63.73,41.31-87.41Z"/>
  <path class="cls-2" d="m436.42,325.9c-24.22,27.79-66.31,62.31-127.76,65.69-30.18,1.66-49.45-.7-65.09-6.44h-61.24c26.22,18.24,61.29,33.6,115.34,29.53,82.29-6.2,125.75-55.22,146.76-88.78h-8.01Z"/>
  <path class="cls-1" d="m288.87,427.33c-70.79,3.99-112.27-19.22-135.7-42.18h-68.74c9.15,9.61,20.42,19.85,33.94,29.5,6.49-2.51,17.67-4.93,36.35-4.37-14.18,2.44-22.65,6.39-27.7,10.25,34.5,22.32,81.98,39.81,144.25,35.75,154.49-10.07,183.62-130.1,183.62-130.1,0,0-31.16,93.54-166.03,101.14Z"/>
</svg>