<svg xmlns="http://www.w3.org/2000/svg" viewBox="0 0 100 100">
  <g fill="#228be6">
    <path d="M26.3 7.1c-10.4 5.1-10.4 20.3 0 25.2 3.6 1.8 7.7 2.3 7.7.9 0-.4-2.1-1.4-4.7-2.2-5.9-1.9-8.8-5.6-8.8-11.5 0-5.4 2.8-9.5 8-11.4 3.2-1.3 4.3-1.3 7.8 0 7 2.5 9.7 8.8 7.3 17.4-.8 2.8-.7 2.9.8 1.4 2.8-2.6 3.1-8 .8-13.3-1.7-3.7-3-5.1-6.4-6.6-5.5-2.5-7.3-2.5-12.5.1zm35-.2c-7.5 3.4-10.9 15.1-5.8 20 1.6 1.5 1.7 1.4.9-1.4-2.8-10.2 2-17.8 11.2-17.8 14.8 0 16.5 21.1 1.8 23.9-3.7.7-4.7 2.4-1.4 2.4 10.1 0 16.8-11.6 12-20.9C77.8 8.8 72 5 67.5 5c-1.1 0-3.9.9-6.2 1.9z"/>
    <path d="M29.4 17.4c-.3.8-.4 2.3-.2 3.3.5 2.5 6.1 2.5 6.6 0 .7-3.7-5.1-6.7-6.4-3.3zm35.6.1c-2 2.5-.8 5 2.5 5 2.1 0 3.1-.5 3.3-1.8.4-2.1-1.4-4.7-3.3-4.7-.7 0-1.8.7-2.5 1.5zM36 27c0 .5 1.3 3.1 2.8 5.7 1.6 2.7 2.9 5.5 3 6.3 0 .8.3 2.4.7 3.5 1.2 4.1-1.4 5.7-10.8 6.2-4.8.3-8.7.9-8.7 1.3s3.9 1 8.7 1.3c9.4.5 12 2.1 10.8 6.2-.4 1.1-.7 2.7-.7 3.5-.1.8-1.4 3.6-3 6.3-2.9 4.9-3.4 6.7-2 6.7a19 19 0 0 0 3.7-5.5c1.7-3 3.5-5.5 4.2-5.5.6 0 1.5-.9 1.8-2 .9-2.8 6.1-2.8 7 0 .3 1.1 1.2 2 1.8 2 .7 0 2.5 2.5 4.2 5.5a19 19 0 0 0 3.7 5.5c1.4 0 .9-1.8-2-6.7a28.4 28.4 0 0 1-3-6.3c0-.8-.3-2.4-.7-3.5-1.2-4.1 1.4-5.7 10.8-6.2 4.8-.3 8.7-.9 8.7-1.3s-3.9-1-8.7-1.3c-9.4-.5-12-2.1-10.8-6.2.4-1.1.7-2.7.7-3.5.1-.8 1.4-3.6 3-6.3 2.9-4.9 3.4-6.7 2-6.7a19 19 0 0 0-3.7 5.5c-1.7 3-3.5 5.5-4.2 5.5-.6 0-1.5.9-1.8 2-.4 1.4-1.5 2-3.5 2s-3.1-.6-3.5-2c-.3-1.1-1.2-2-1.8-2-.7 0-2.5-2.5-4.2-5.5-2.7-5.1-4.5-6.9-4.5-4.5z"/>
    <path d="M7.3 38c-8.7 5.2-8.3 19.8.6 24.5a15.4 15.4 0 0 0 18.8-4.4c2.2-3.2.6-4-2-.9-4.2 4.9-10.1 6.2-15.7 3.3-4.2-2.2-6-5.3-6-10.5s1.8-8.3 6-10.5c5.6-2.9 11.5-1.6 15.7 3.3 2.6 3.1 4.2 2.3 2-.9A15 15 0 0 0 7.3 38zm70 0c-3.3 2-5.9 5.7-4.8 6.8.3.3 1.6-.6 2.8-2 4.2-4.9 10.1-6.2 15.7-3.3 4.1 2.1 6 5.3 6 10.3C97 56.9 92 62 85 62a12 12 0 0 1-9.7-4.8c-2.6-3.1-4.2-2.3-2 .9 4 5.6 12.5 7.6 18.8 4.4 8.9-4.7 9.3-19.3.6-24.5a16.2 16.2 0 0 0-15.4 0z"/>
    <path d="M12.8 47.1c-2.4 1.3-2.3 4.6.1 5.9 1.1.5 2.2 1 2.5 1 .8 0 3.6-3.1 3.6-4 0-1-2.9-4-3.8-4-.4 0-1.5.5-2.4 1.1zm69.8.5c-.9.8-1.6 1.9-1.6 2.4 0 .9 2.8 4 3.6 4 1.8 0 4.4-2.4 4.4-4 0-1.1-.9-2.4-1.9-3-2.5-1.3-2.7-1.3-4.5.6zM26.1 67.8c-12.4 6.2-9.4 24.6 4.3 26.9 5.4.9 12-2.6 14.6-7.8 2.5-4.8 2.3-11-.4-13.8-1.9-1.8-2-.6-.5 3.8 3.4 9.7-7.4 19.2-16.7 14.7-4-1.8-7.4-6.9-7.4-10.9 0-6 6.2-12.7 11.8-12.7 1.2 0 2.2-.5 2.2-1 0-1.6-4.2-1.2-7.9.8zm39.9-1c0 .5 1.5 1.3 3.4 1.6 4.8.9 8.4 4.1 9.7 8.5 2.4 8-3.2 15.4-11.5 15.4-9.2 0-14-7.6-11.2-17.8.8-2.8.7-2.9-.9-1.4-.9.9-1.9 3.4-2.2 5.6-1.6 12 12.7 20.4 22.6 13.4 7.9-5.7 7.8-18.4-.3-23.6-3-2-9.6-3.2-9.6-1.7z"/>
    <path d="M29.7 77.6c-1.1 1.1-.8 5.2.4 5.9.5.4 2.1.4 3.5.1 2-.5 2.5-1.2 2.2-3.4-.2-2-.9-2.8-2.8-3-1.4-.2-2.9 0-3.3.4zm35 0c-.4.4-.7 1.8-.7 3 0 1.7.7 2.5 2.6 3 3.1.8 4.7-.6 4.2-3.7-.2-1.7-1-2.5-2.8-2.7-1.4-.2-2.9 0-3.3.4z"/>
  </g>
</svg>
